<mxfile host="www.draw.io" modified="2020-03-20T08:50:59.569Z" agent="Mozilla/5.0 (Windows NT 10.0; Win64; x64) AppleWebKit/537.36 (KHTML, like Gecko) Chrome/75.0.3770.100 Safari/537.36" etag="nTS7eGxdQyqcgie2oUu7" version="12.8.8" type="github">
  <diagram id="C5RBs43oDa-KdzZeNtuy" name="Page-1">
    <mxGraphModel dx="2249" dy="762" grid="1" gridSize="10" guides="1" tooltips="1" connect="1" arrows="1" fold="1" page="1" pageScale="1" pageWidth="827" pageHeight="1169" math="0" shadow="0">
      <root>
        <mxCell id="WIyWlLk6GJQsqaUBKTNV-0" />
        <mxCell id="WIyWlLk6GJQsqaUBKTNV-1" parent="WIyWlLk6GJQsqaUBKTNV-0" />
        <mxCell id="nlMhimf3iIqSvQVgSj5G-24" style="edgeStyle=orthogonalEdgeStyle;rounded=0;orthogonalLoop=1;jettySize=auto;html=1;" edge="1" parent="WIyWlLk6GJQsqaUBKTNV-1" source="nlMhimf3iIqSvQVgSj5G-0" target="nlMhimf3iIqSvQVgSj5G-1">
          <mxGeometry relative="1" as="geometry" />
        </mxCell>
        <mxCell id="nlMhimf3iIqSvQVgSj5G-25" style="edgeStyle=orthogonalEdgeStyle;rounded=0;orthogonalLoop=1;jettySize=auto;html=1;" edge="1" parent="WIyWlLk6GJQsqaUBKTNV-1" source="nlMhimf3iIqSvQVgSj5G-0" target="nlMhimf3iIqSvQVgSj5G-2">
          <mxGeometry relative="1" as="geometry" />
        </mxCell>
        <mxCell id="nlMhimf3iIqSvQVgSj5G-40" style="edgeStyle=orthogonalEdgeStyle;rounded=0;orthogonalLoop=1;jettySize=auto;html=1;" edge="1" parent="WIyWlLk6GJQsqaUBKTNV-1" source="nlMhimf3iIqSvQVgSj5G-0" target="nlMhimf3iIqSvQVgSj5G-35">
          <mxGeometry relative="1" as="geometry" />
        </mxCell>
        <mxCell id="nlMhimf3iIqSvQVgSj5G-0" value="以开始时间查询数据库" style="rounded=1;whiteSpace=wrap;html=1;" vertex="1" parent="WIyWlLk6GJQsqaUBKTNV-1">
          <mxGeometry x="180" y="120" width="180" height="40" as="geometry" />
        </mxCell>
        <mxCell id="nlMhimf3iIqSvQVgSj5G-10" style="edgeStyle=orthogonalEdgeStyle;rounded=0;orthogonalLoop=1;jettySize=auto;html=1;entryX=0.5;entryY=0;entryDx=0;entryDy=0;" edge="1" parent="WIyWlLk6GJQsqaUBKTNV-1" source="nlMhimf3iIqSvQVgSj5G-1" target="nlMhimf3iIqSvQVgSj5G-3">
          <mxGeometry relative="1" as="geometry" />
        </mxCell>
        <mxCell id="nlMhimf3iIqSvQVgSj5G-23" style="edgeStyle=orthogonalEdgeStyle;rounded=0;orthogonalLoop=1;jettySize=auto;html=1;" edge="1" parent="WIyWlLk6GJQsqaUBKTNV-1" source="nlMhimf3iIqSvQVgSj5G-1" target="nlMhimf3iIqSvQVgSj5G-21">
          <mxGeometry relative="1" as="geometry" />
        </mxCell>
        <mxCell id="nlMhimf3iIqSvQVgSj5G-1" value="第一条记录判断" style="rounded=1;whiteSpace=wrap;html=1;" vertex="1" parent="WIyWlLk6GJQsqaUBKTNV-1">
          <mxGeometry x="-140" y="220" width="120" height="40" as="geometry" />
        </mxCell>
        <mxCell id="nlMhimf3iIqSvQVgSj5G-37" style="edgeStyle=orthogonalEdgeStyle;rounded=0;orthogonalLoop=1;jettySize=auto;html=1;entryX=0.5;entryY=0;entryDx=0;entryDy=0;exitX=0;exitY=0.5;exitDx=0;exitDy=0;" edge="1" parent="WIyWlLk6GJQsqaUBKTNV-1" source="nlMhimf3iIqSvQVgSj5G-2" target="nlMhimf3iIqSvQVgSj5G-26">
          <mxGeometry relative="1" as="geometry" />
        </mxCell>
        <mxCell id="nlMhimf3iIqSvQVgSj5G-39" style="edgeStyle=orthogonalEdgeStyle;rounded=0;orthogonalLoop=1;jettySize=auto;html=1;exitX=1;exitY=0.5;exitDx=0;exitDy=0;" edge="1" parent="WIyWlLk6GJQsqaUBKTNV-1" source="nlMhimf3iIqSvQVgSj5G-2" target="nlMhimf3iIqSvQVgSj5G-38">
          <mxGeometry relative="1" as="geometry" />
        </mxCell>
        <mxCell id="nlMhimf3iIqSvQVgSj5G-2" value="最后一条记录判断" style="rounded=1;whiteSpace=wrap;html=1;" vertex="1" parent="WIyWlLk6GJQsqaUBKTNV-1">
          <mxGeometry x="410" y="220" width="120" height="40" as="geometry" />
        </mxCell>
        <mxCell id="nlMhimf3iIqSvQVgSj5G-5" style="edgeStyle=orthogonalEdgeStyle;rounded=0;orthogonalLoop=1;jettySize=auto;html=1;entryX=0.556;entryY=-0.067;entryDx=0;entryDy=0;entryPerimeter=0;" edge="1" parent="WIyWlLk6GJQsqaUBKTNV-1" source="nlMhimf3iIqSvQVgSj5G-3" target="nlMhimf3iIqSvQVgSj5G-4">
          <mxGeometry relative="1" as="geometry" />
        </mxCell>
        <mxCell id="nlMhimf3iIqSvQVgSj5G-6" value="是小于" style="text;html=1;align=center;verticalAlign=middle;resizable=0;points=[];labelBackgroundColor=#ffffff;" vertex="1" connectable="0" parent="nlMhimf3iIqSvQVgSj5G-5">
          <mxGeometry x="-0.2019" y="1" relative="1" as="geometry">
            <mxPoint as="offset" />
          </mxGeometry>
        </mxCell>
        <mxCell id="nlMhimf3iIqSvQVgSj5G-8" style="edgeStyle=orthogonalEdgeStyle;rounded=0;orthogonalLoop=1;jettySize=auto;html=1;entryX=0.5;entryY=0;entryDx=0;entryDy=0;" edge="1" parent="WIyWlLk6GJQsqaUBKTNV-1" source="nlMhimf3iIqSvQVgSj5G-3" target="nlMhimf3iIqSvQVgSj5G-7">
          <mxGeometry relative="1" as="geometry" />
        </mxCell>
        <mxCell id="nlMhimf3iIqSvQVgSj5G-9" value="等于" style="text;html=1;align=center;verticalAlign=middle;resizable=0;points=[];labelBackgroundColor=#ffffff;" vertex="1" connectable="0" parent="nlMhimf3iIqSvQVgSj5G-8">
          <mxGeometry x="0.3333" y="1" relative="1" as="geometry">
            <mxPoint as="offset" />
          </mxGeometry>
        </mxCell>
        <mxCell id="nlMhimf3iIqSvQVgSj5G-3" value="queryStart &amp;lt; eventStart" style="rounded=1;whiteSpace=wrap;html=1;" vertex="1" parent="WIyWlLk6GJQsqaUBKTNV-1">
          <mxGeometry x="-60" y="300" width="180" height="30" as="geometry" />
        </mxCell>
        <mxCell id="nlMhimf3iIqSvQVgSj5G-12" style="edgeStyle=orthogonalEdgeStyle;rounded=0;orthogonalLoop=1;jettySize=auto;html=1;entryX=0.5;entryY=0;entryDx=0;entryDy=0;" edge="1" parent="WIyWlLk6GJQsqaUBKTNV-1" source="nlMhimf3iIqSvQVgSj5G-4" target="nlMhimf3iIqSvQVgSj5G-11">
          <mxGeometry relative="1" as="geometry" />
        </mxCell>
        <mxCell id="nlMhimf3iIqSvQVgSj5G-4" value="需求查前一条状态" style="rounded=1;whiteSpace=wrap;html=1;" vertex="1" parent="WIyWlLk6GJQsqaUBKTNV-1">
          <mxGeometry x="-190" y="380" width="180" height="30" as="geometry" />
        </mxCell>
        <mxCell id="nlMhimf3iIqSvQVgSj5G-7" value="不需求查上一条状态" style="rounded=1;whiteSpace=wrap;html=1;" vertex="1" parent="WIyWlLk6GJQsqaUBKTNV-1">
          <mxGeometry x="10" y="450" width="170" height="30" as="geometry" />
        </mxCell>
        <mxCell id="nlMhimf3iIqSvQVgSj5G-18" style="edgeStyle=orthogonalEdgeStyle;rounded=0;orthogonalLoop=1;jettySize=auto;html=1;entryX=0.5;entryY=0;entryDx=0;entryDy=0;" edge="1" parent="WIyWlLk6GJQsqaUBKTNV-1" source="nlMhimf3iIqSvQVgSj5G-11" target="nlMhimf3iIqSvQVgSj5G-13">
          <mxGeometry relative="1" as="geometry" />
        </mxCell>
        <mxCell id="nlMhimf3iIqSvQVgSj5G-11" value="查指定状态的最后一条状态" style="rounded=1;whiteSpace=wrap;html=1;" vertex="1" parent="WIyWlLk6GJQsqaUBKTNV-1">
          <mxGeometry x="-200" y="470" width="180" height="30" as="geometry" />
        </mxCell>
        <mxCell id="nlMhimf3iIqSvQVgSj5G-16" style="edgeStyle=orthogonalEdgeStyle;rounded=0;orthogonalLoop=1;jettySize=auto;html=1;" edge="1" parent="WIyWlLk6GJQsqaUBKTNV-1" source="nlMhimf3iIqSvQVgSj5G-13" target="nlMhimf3iIqSvQVgSj5G-14">
          <mxGeometry relative="1" as="geometry" />
        </mxCell>
        <mxCell id="nlMhimf3iIqSvQVgSj5G-19" value="是小于" style="text;html=1;align=center;verticalAlign=middle;resizable=0;points=[];labelBackgroundColor=#ffffff;" vertex="1" connectable="0" parent="nlMhimf3iIqSvQVgSj5G-16">
          <mxGeometry x="0.3059" relative="1" as="geometry">
            <mxPoint as="offset" />
          </mxGeometry>
        </mxCell>
        <mxCell id="nlMhimf3iIqSvQVgSj5G-17" style="edgeStyle=orthogonalEdgeStyle;rounded=0;orthogonalLoop=1;jettySize=auto;html=1;" edge="1" parent="WIyWlLk6GJQsqaUBKTNV-1" source="nlMhimf3iIqSvQVgSj5G-13" target="nlMhimf3iIqSvQVgSj5G-15">
          <mxGeometry relative="1" as="geometry" />
        </mxCell>
        <mxCell id="nlMhimf3iIqSvQVgSj5G-20" value="不小于" style="text;html=1;align=center;verticalAlign=middle;resizable=0;points=[];labelBackgroundColor=#ffffff;" vertex="1" connectable="0" parent="nlMhimf3iIqSvQVgSj5G-17">
          <mxGeometry x="0.4222" y="-3" relative="1" as="geometry">
            <mxPoint as="offset" />
          </mxGeometry>
        </mxCell>
        <mxCell id="nlMhimf3iIqSvQVgSj5G-13" value="lastEventEnd &amp;lt; queryStart&amp;nbsp;" style="rounded=1;whiteSpace=wrap;html=1;" vertex="1" parent="WIyWlLk6GJQsqaUBKTNV-1">
          <mxGeometry x="-200" y="530" width="180" height="30" as="geometry" />
        </mxCell>
        <mxCell id="nlMhimf3iIqSvQVgSj5G-14" value="pass" style="rounded=1;whiteSpace=wrap;html=1;" vertex="1" parent="WIyWlLk6GJQsqaUBKTNV-1">
          <mxGeometry x="-310" y="620" width="180" height="30" as="geometry" />
        </mxCell>
        <mxCell id="nlMhimf3iIqSvQVgSj5G-33" style="edgeStyle=orthogonalEdgeStyle;rounded=0;orthogonalLoop=1;jettySize=auto;html=1;" edge="1" parent="WIyWlLk6GJQsqaUBKTNV-1" source="nlMhimf3iIqSvQVgSj5G-15" target="nlMhimf3iIqSvQVgSj5G-32">
          <mxGeometry relative="1" as="geometry" />
        </mxCell>
        <mxCell id="nlMhimf3iIqSvQVgSj5G-15" value="start = queryStart&lt;br&gt;end = lastEventEnd&lt;br&gt;event = lastEvent&lt;br&gt;duration = start - end&amp;nbsp;" style="rounded=1;whiteSpace=wrap;html=1;" vertex="1" parent="WIyWlLk6GJQsqaUBKTNV-1">
          <mxGeometry x="-80" y="620" width="180" height="70" as="geometry" />
        </mxCell>
        <mxCell id="nlMhimf3iIqSvQVgSj5G-22" style="edgeStyle=orthogonalEdgeStyle;rounded=0;orthogonalLoop=1;jettySize=auto;html=1;" edge="1" parent="WIyWlLk6GJQsqaUBKTNV-1" source="nlMhimf3iIqSvQVgSj5G-21" target="nlMhimf3iIqSvQVgSj5G-4">
          <mxGeometry relative="1" as="geometry" />
        </mxCell>
        <mxCell id="nlMhimf3iIqSvQVgSj5G-21" value="没有记录" style="rounded=1;whiteSpace=wrap;html=1;" vertex="1" parent="WIyWlLk6GJQsqaUBKTNV-1">
          <mxGeometry x="-250" y="300" width="120" height="40" as="geometry" />
        </mxCell>
        <mxCell id="nlMhimf3iIqSvQVgSj5G-28" value="" style="edgeStyle=orthogonalEdgeStyle;rounded=0;orthogonalLoop=1;jettySize=auto;html=1;" edge="1" parent="WIyWlLk6GJQsqaUBKTNV-1" source="nlMhimf3iIqSvQVgSj5G-26" target="nlMhimf3iIqSvQVgSj5G-27">
          <mxGeometry relative="1" as="geometry" />
        </mxCell>
        <mxCell id="nlMhimf3iIqSvQVgSj5G-26" value="没有记录" style="rounded=1;whiteSpace=wrap;html=1;" vertex="1" parent="WIyWlLk6GJQsqaUBKTNV-1">
          <mxGeometry x="320" y="290" width="120" height="40" as="geometry" />
        </mxCell>
        <mxCell id="nlMhimf3iIqSvQVgSj5G-29" style="edgeStyle=orthogonalEdgeStyle;rounded=0;orthogonalLoop=1;jettySize=auto;html=1;entryX=1;entryY=0.5;entryDx=0;entryDy=0;" edge="1" parent="WIyWlLk6GJQsqaUBKTNV-1" source="nlMhimf3iIqSvQVgSj5G-27" target="nlMhimf3iIqSvQVgSj5G-15">
          <mxGeometry relative="1" as="geometry" />
        </mxCell>
        <mxCell id="nlMhimf3iIqSvQVgSj5G-31" style="edgeStyle=orthogonalEdgeStyle;rounded=0;orthogonalLoop=1;jettySize=auto;html=1;entryX=0.5;entryY=0;entryDx=0;entryDy=0;" edge="1" parent="WIyWlLk6GJQsqaUBKTNV-1" source="nlMhimf3iIqSvQVgSj5G-27" target="nlMhimf3iIqSvQVgSj5G-30">
          <mxGeometry relative="1" as="geometry" />
        </mxCell>
        <mxCell id="nlMhimf3iIqSvQVgSj5G-27" value="取第一条" style="rounded=1;whiteSpace=wrap;html=1;" vertex="1" parent="WIyWlLk6GJQsqaUBKTNV-1">
          <mxGeometry x="320" y="410" width="120" height="40" as="geometry" />
        </mxCell>
        <mxCell id="nlMhimf3iIqSvQVgSj5G-34" style="edgeStyle=orthogonalEdgeStyle;rounded=0;orthogonalLoop=1;jettySize=auto;html=1;exitX=0.5;exitY=1;exitDx=0;exitDy=0;" edge="1" parent="WIyWlLk6GJQsqaUBKTNV-1" source="nlMhimf3iIqSvQVgSj5G-30">
          <mxGeometry relative="1" as="geometry">
            <mxPoint x="190" y="790" as="targetPoint" />
          </mxGeometry>
        </mxCell>
        <mxCell id="nlMhimf3iIqSvQVgSj5G-30" value="end = queryEnd&lt;br&gt;duration = start - end" style="rounded=1;whiteSpace=wrap;html=1;" vertex="1" parent="WIyWlLk6GJQsqaUBKTNV-1">
          <mxGeometry x="320" y="490" width="120" height="90" as="geometry" />
        </mxCell>
        <mxCell id="nlMhimf3iIqSvQVgSj5G-55" value="" style="edgeStyle=orthogonalEdgeStyle;rounded=0;orthogonalLoop=1;jettySize=auto;html=1;" edge="1" parent="WIyWlLk6GJQsqaUBKTNV-1" source="nlMhimf3iIqSvQVgSj5G-32" target="nlMhimf3iIqSvQVgSj5G-54">
          <mxGeometry relative="1" as="geometry" />
        </mxCell>
        <mxCell id="nlMhimf3iIqSvQVgSj5G-32" value="组合数据" style="rounded=1;whiteSpace=wrap;html=1;" vertex="1" parent="WIyWlLk6GJQsqaUBKTNV-1">
          <mxGeometry x="100" y="790" width="180" height="70" as="geometry" />
        </mxCell>
        <mxCell id="nlMhimf3iIqSvQVgSj5G-36" style="edgeStyle=orthogonalEdgeStyle;rounded=0;orthogonalLoop=1;jettySize=auto;html=1;" edge="1" parent="WIyWlLk6GJQsqaUBKTNV-1" source="nlMhimf3iIqSvQVgSj5G-35" target="nlMhimf3iIqSvQVgSj5G-32">
          <mxGeometry relative="1" as="geometry" />
        </mxCell>
        <mxCell id="nlMhimf3iIqSvQVgSj5G-35" value="中间数据" style="rounded=1;whiteSpace=wrap;html=1;" vertex="1" parent="WIyWlLk6GJQsqaUBKTNV-1">
          <mxGeometry x="140" y="220" width="120" height="40" as="geometry" />
        </mxCell>
        <mxCell id="nlMhimf3iIqSvQVgSj5G-44" style="edgeStyle=orthogonalEdgeStyle;rounded=0;orthogonalLoop=1;jettySize=auto;html=1;" edge="1" parent="WIyWlLk6GJQsqaUBKTNV-1" source="nlMhimf3iIqSvQVgSj5G-38" target="nlMhimf3iIqSvQVgSj5G-43">
          <mxGeometry relative="1" as="geometry" />
        </mxCell>
        <mxCell id="nlMhimf3iIqSvQVgSj5G-45" value="是大于" style="text;html=1;align=center;verticalAlign=middle;resizable=0;points=[];labelBackgroundColor=#ffffff;" vertex="1" connectable="0" parent="nlMhimf3iIqSvQVgSj5G-44">
          <mxGeometry x="0.3538" y="3" relative="1" as="geometry">
            <mxPoint as="offset" />
          </mxGeometry>
        </mxCell>
        <mxCell id="nlMhimf3iIqSvQVgSj5G-47" style="edgeStyle=orthogonalEdgeStyle;rounded=0;orthogonalLoop=1;jettySize=auto;html=1;entryX=0.5;entryY=0;entryDx=0;entryDy=0;" edge="1" parent="WIyWlLk6GJQsqaUBKTNV-1" source="nlMhimf3iIqSvQVgSj5G-38" target="nlMhimf3iIqSvQVgSj5G-46">
          <mxGeometry relative="1" as="geometry" />
        </mxCell>
        <mxCell id="nlMhimf3iIqSvQVgSj5G-48" value="等于" style="text;html=1;align=center;verticalAlign=middle;resizable=0;points=[];labelBackgroundColor=#ffffff;" vertex="1" connectable="0" parent="nlMhimf3iIqSvQVgSj5G-47">
          <mxGeometry x="0.39" y="4" relative="1" as="geometry">
            <mxPoint as="offset" />
          </mxGeometry>
        </mxCell>
        <mxCell id="nlMhimf3iIqSvQVgSj5G-38" value="queryEnd &amp;gt; eventStart" style="rounded=1;whiteSpace=wrap;html=1;" vertex="1" parent="WIyWlLk6GJQsqaUBKTNV-1">
          <mxGeometry x="530" y="290" width="200" height="40" as="geometry" />
        </mxCell>
        <mxCell id="nlMhimf3iIqSvQVgSj5G-50" style="edgeStyle=orthogonalEdgeStyle;rounded=0;orthogonalLoop=1;jettySize=auto;html=1;entryX=0.5;entryY=0;entryDx=0;entryDy=0;" edge="1" parent="WIyWlLk6GJQsqaUBKTNV-1" source="nlMhimf3iIqSvQVgSj5G-43" target="nlMhimf3iIqSvQVgSj5G-49">
          <mxGeometry relative="1" as="geometry" />
        </mxCell>
        <mxCell id="nlMhimf3iIqSvQVgSj5G-43" value="切掉最后的状态" style="rounded=1;whiteSpace=wrap;html=1;" vertex="1" parent="WIyWlLk6GJQsqaUBKTNV-1">
          <mxGeometry x="540" y="380" width="180" height="30" as="geometry" />
        </mxCell>
        <mxCell id="nlMhimf3iIqSvQVgSj5G-46" value="不处理" style="rounded=1;whiteSpace=wrap;html=1;" vertex="1" parent="WIyWlLk6GJQsqaUBKTNV-1">
          <mxGeometry x="750" y="380" width="180" height="30" as="geometry" />
        </mxCell>
        <mxCell id="nlMhimf3iIqSvQVgSj5G-53" style="edgeStyle=orthogonalEdgeStyle;rounded=0;orthogonalLoop=1;jettySize=auto;html=1;entryX=0.5;entryY=0;entryDx=0;entryDy=0;exitX=0.539;exitY=0.989;exitDx=0;exitDy=0;exitPerimeter=0;" edge="1" parent="WIyWlLk6GJQsqaUBKTNV-1" source="nlMhimf3iIqSvQVgSj5G-49" target="nlMhimf3iIqSvQVgSj5G-32">
          <mxGeometry relative="1" as="geometry" />
        </mxCell>
        <mxCell id="nlMhimf3iIqSvQVgSj5G-49" value="end = queryEnd&lt;br&gt;duration = start - end&amp;nbsp;&amp;nbsp;" style="rounded=1;whiteSpace=wrap;html=1;" vertex="1" parent="WIyWlLk6GJQsqaUBKTNV-1">
          <mxGeometry x="540" y="470" width="180" height="90" as="geometry" />
        </mxCell>
        <mxCell id="nlMhimf3iIqSvQVgSj5G-54" value="分页" style="rounded=1;whiteSpace=wrap;html=1;" vertex="1" parent="WIyWlLk6GJQsqaUBKTNV-1">
          <mxGeometry x="100" y="890" width="180" height="70" as="geometry" />
        </mxCell>
      </root>
    </mxGraphModel>
  </diagram>
</mxfile>
